
<svg xmlns="http://www.w3.org/2000/svg" width="120" height="120" role="img" viewBox="0 0 120 120"><g transform="translate(60.0,60.0) scale(1.9703783969930753) translate(-60.00,-115.12)"><path d="M 16.00 100.44 L 16.52 100.43 L 17.04 100.42 L 17.56 100.41 L 18.08 100.39 L 18.60 100.38 L 19.12 100.37 L 19.64 100.35 L 20.17 100.34 L 20.69 100.32 L 21.21 100.31 L 21.73 100.29 L 22.25 100.27 L 22.77 100.26 L 23.29 100.24 L 23.81 100.22 L 24.33 100.20 L 24.85 100.18 L 25.37 100.16 L 25.89 100.14 L 26.41 100.12 L 26.93 100.10 L 27.46 100.07 L 27.98 100.05 L 28.50 100.02 L 29.02 100.00 L 29.54 99.97 L 30.06 99.94 L 30.58 99.91 L 31.10 99.88 L 31.62 99.85 L 32.14 99.82 L 32.66 99.78 L 33.18 99.75 L 33.70 99.71 L 34.22 99.68 L 34.75 99.64 L 35.27 99.59 L 35.79 99.55 L 36.31 99.51 L 36.83 99.46 L 37.35 99.41 L 37.87 99.36 L 38.39 99.31 L 38.91 99.26 L 39.43 99.20 L 39.95 99.15 L 40.47 99.09 L 40.99 99.02 L 41.51 98.96 L 42.04 98.89 L 42.56 98.82 L 43.08 98.75 L 43.60 98.68 L 44.12 98.60 L 44.64 98.52 L 45.16 98.44 L 45.68 98.36 L 46.20 98.27 L 46.72 98.18 L 47.24 98.09 L 47.76 97.99 L 48.28 97.90 L 48.80 97.80 L 49.33 97.70 L 49.85 97.60 L 50.37 97.50 L 50.89 97.40 L 51.41 97.30 L 51.93 97.20 L 52.45 97.10 L 52.97 97.01 L 53.49 96.91 L 54.01 96.82 L 54.53 96.73 L 55.05 96.65 L 55.57 96.58 L 56.09 96.50 L 56.62 96.44 L 57.14 96.38 L 57.66 96.34 L 58.18 96.30 L 58.70 96.27 L 59.22 96.25 L 59.74 96.24 L 60.26 96.24 L 60.78 96.25 L 61.30 96.27 L 61.82 96.30 L 62.34 96.34 L 62.86 96.38 L 63.38 96.44 L 63.91 96.50 L 64.43 96.58 L 64.95 96.65 L 65.47 96.73 L 65.99 96.82 L 66.51 96.91 L 67.03 97.01 L 67.55 97.10 L 68.07 97.20 L 68.59 97.30 L 69.11 97.40 L 69.63 97.50 L 70.15 97.60 L 70.67 97.70 L 71.20 97.80 L 71.72 97.90 L 72.24 97.99 L 72.76 98.09 L 73.28 98.18 L 73.80 98.27 L 74.32 98.36 L 74.84 98.44 L 75.36 98.52 L 75.88 98.60 L 76.40 98.68 L 76.92 98.75 L 77.44 98.82 L 77.96 98.89 L 78.49 98.96 L 79.01 99.02 L 79.53 99.09 L 80.05 99.15 L 80.57 99.20 L 81.09 99.26 L 81.61 99.31 L 82.13 99.36 L 82.65 99.41 L 83.17 99.46 L 83.69 99.51 L 84.21 99.55 L 84.73 99.59 L 85.25 99.64 L 85.78 99.68 L 86.30 99.71 L 86.82 99.75 L 87.34 99.78 L 87.86 99.82 L 88.38 99.85 L 88.90 99.88 L 89.42 99.91 L 89.94 99.94 L 90.46 99.97 L 90.98 100.00 L 91.50 100.02 L 92.02 100.05 L 92.54 100.07 L 93.07 100.10 L 93.59 100.12 L 94.11 100.14 L 94.63 100.16 L 95.15 100.18 L 95.67 100.20 L 96.19 100.22 L 96.71 100.24 L 97.23 100.26 L 97.75 100.27 L 98.27 100.29 L 98.79 100.31 L 99.31 100.32 L 99.83 100.34 L 100.36 100.35 L 100.88 100.37 L 101.40 100.38 L 101.92 100.39 L 102.44 100.41 L 102.96 100.42 L 103.48 100.43 L 104.00 100.44" fill="none" stroke="#2A2A2A" stroke-width="2.9749999999999996" stroke-linecap="round"></path><path d="M 16.00 108.53 L 16.52 108.51 L 17.04 108.49 L 17.56 108.47 L 18.08 108.44 L 18.60 108.42 L 19.12 108.40 L 19.64 108.37 L 20.17 108.35 L 20.69 108.32 L 21.21 108.29 L 21.73 108.26 L 22.25 108.24 L 22.77 108.21 L 23.29 108.17 L 23.81 108.14 L 24.33 108.11 L 24.85 108.07 L 25.37 108.04 L 25.89 108.00 L 26.41 107.96 L 26.93 107.92 L 27.46 107.88 L 27.98 107.84 L 28.50 107.80 L 29.02 107.75 L 29.54 107.70 L 30.06 107.66 L 30.58 107.61 L 31.10 107.55 L 31.62 107.50 L 32.14 107.44 L 32.66 107.38 L 33.18 107.32 L 33.70 107.26 L 34.22 107.19 L 34.75 107.12 L 35.27 107.05 L 35.79 106.98 L 36.31 106.90 L 36.83 106.82 L 37.35 106.74 L 37.87 106.65 L 38.39 106.56 L 38.91 106.47 L 39.43 106.37 L 39.95 106.27 L 40.47 106.17 L 40.99 106.06 L 41.51 105.94 L 42.04 105.83 L 42.56 105.71 L 43.08 105.58 L 43.60 105.45 L 44.12 105.32 L 44.64 105.18 L 45.16 105.04 L 45.68 104.89 L 46.20 104.74 L 46.72 104.58 L 47.24 104.42 L 47.76 104.26 L 48.28 104.10 L 48.80 103.93 L 49.33 103.76 L 49.85 103.58 L 50.37 103.41 L 50.89 103.23 L 51.41 103.06 L 51.93 102.88 L 52.45 102.71 L 52.97 102.54 L 53.49 102.38 L 54.01 102.22 L 54.53 102.07 L 55.05 101.92 L 55.57 101.79 L 56.09 101.67 L 56.62 101.55 L 57.14 101.46 L 57.66 101.37 L 58.18 101.30 L 58.70 101.25 L 59.22 101.22 L 59.74 101.20 L 60.26 101.20 L 60.78 101.22 L 61.30 101.25 L 61.82 101.30 L 62.34 101.37 L 62.86 101.46 L 63.38 101.55 L 63.91 101.67 L 64.43 101.79 L 64.95 101.92 L 65.47 102.07 L 65.99 102.22 L 66.51 102.38 L 67.03 102.54 L 67.55 102.71 L 68.07 102.88 L 68.59 103.06 L 69.11 103.23 L 69.63 103.41 L 70.15 103.58 L 70.67 103.76 L 71.20 103.93 L 71.72 104.10 L 72.24 104.26 L 72.76 104.42 L 73.28 104.58 L 73.80 104.74 L 74.32 104.89 L 74.84 105.04 L 75.36 105.18 L 75.88 105.32 L 76.40 105.45 L 76.92 105.58 L 77.44 105.71 L 77.96 105.83 L 78.49 105.94 L 79.01 106.06 L 79.53 106.17 L 80.05 106.27 L 80.57 106.37 L 81.09 106.47 L 81.61 106.56 L 82.13 106.65 L 82.65 106.74 L 83.17 106.82 L 83.69 106.90 L 84.21 106.98 L 84.73 107.05 L 85.25 107.12 L 85.78 107.19 L 86.30 107.26 L 86.82 107.32 L 87.34 107.38 L 87.86 107.44 L 88.38 107.50 L 88.90 107.55 L 89.42 107.61 L 89.94 107.66 L 90.46 107.70 L 90.98 107.75 L 91.50 107.80 L 92.02 107.84 L 92.54 107.88 L 93.07 107.92 L 93.59 107.96 L 94.11 108.00 L 94.63 108.04 L 95.15 108.07 L 95.67 108.11 L 96.19 108.14 L 96.71 108.17 L 97.23 108.21 L 97.75 108.24 L 98.27 108.26 L 98.79 108.29 L 99.31 108.32 L 99.83 108.35 L 100.36 108.37 L 100.88 108.40 L 101.40 108.42 L 101.92 108.44 L 102.44 108.47 L 102.96 108.49 L 103.48 108.51 L 104.00 108.53" fill="none" stroke="#2A2A2A" stroke-width="2.9749999999999996" stroke-linecap="round"></path><path d="M 16.00 116.89 L 16.52 116.87 L 17.04 116.84 L 17.56 116.82 L 18.08 116.79 L 18.60 116.77 L 19.12 116.74 L 19.64 116.71 L 20.17 116.68 L 20.69 116.65 L 21.21 116.62 L 21.73 116.59 L 22.25 116.55 L 22.77 116.52 L 23.29 116.48 L 23.81 116.45 L 24.33 116.41 L 24.85 116.37 L 25.37 116.33 L 25.89 116.29 L 26.41 116.24 L 26.93 116.20 L 27.46 116.15 L 27.98 116.10 L 28.50 116.05 L 29.02 116.00 L 29.54 115.95 L 30.06 115.89 L 30.58 115.83 L 31.10 115.77 L 31.62 115.71 L 32.14 115.64 L 32.66 115.58 L 33.18 115.51 L 33.70 115.43 L 34.22 115.36 L 34.75 115.28 L 35.27 115.20 L 35.79 115.11 L 36.31 115.03 L 36.83 114.93 L 37.35 114.84 L 37.87 114.74 L 38.39 114.64 L 38.91 114.53 L 39.43 114.42 L 39.95 114.30 L 40.47 114.19 L 40.99 114.06 L 41.51 113.93 L 42.04 113.80 L 42.56 113.66 L 43.08 113.52 L 43.60 113.37 L 44.12 113.22 L 44.64 113.06 L 45.16 112.90 L 45.68 112.73 L 46.20 112.55 L 46.72 112.38 L 47.24 112.19 L 47.76 112.01 L 48.28 111.82 L 48.80 111.63 L 49.33 111.43 L 49.85 111.23 L 50.37 111.03 L 50.89 110.83 L 51.41 110.63 L 51.93 110.43 L 52.45 110.23 L 52.97 110.04 L 53.49 109.85 L 54.01 109.67 L 54.53 109.50 L 55.05 109.33 L 55.57 109.18 L 56.09 109.04 L 56.62 108.91 L 57.14 108.80 L 57.66 108.70 L 58.18 108.63 L 58.70 108.57 L 59.22 108.53 L 59.74 108.51 L 60.26 108.51 L 60.78 108.53 L 61.30 108.57 L 61.82 108.63 L 62.34 108.70 L 62.86 108.80 L 63.38 108.91 L 63.91 109.04 L 64.43 109.18 L 64.95 109.33 L 65.47 109.50 L 65.99 109.67 L 66.51 109.85 L 67.03 110.04 L 67.55 110.23 L 68.07 110.43 L 68.59 110.63 L 69.11 110.83 L 69.63 111.03 L 70.15 111.23 L 70.67 111.43 L 71.20 111.63 L 71.72 111.82 L 72.24 112.01 L 72.76 112.19 L 73.28 112.38 L 73.80 112.55 L 74.32 112.73 L 74.84 112.90 L 75.36 113.06 L 75.88 113.22 L 76.40 113.37 L 76.92 113.52 L 77.44 113.66 L 77.96 113.80 L 78.49 113.93 L 79.01 114.06 L 79.53 114.19 L 80.05 114.30 L 80.57 114.42 L 81.09 114.53 L 81.61 114.64 L 82.13 114.74 L 82.65 114.84 L 83.17 114.93 L 83.69 115.03 L 84.21 115.11 L 84.73 115.20 L 85.25 115.28 L 85.78 115.36 L 86.30 115.43 L 86.82 115.51 L 87.34 115.58 L 87.86 115.64 L 88.38 115.71 L 88.90 115.77 L 89.42 115.83 L 89.94 115.89 L 90.46 115.95 L 90.98 116.00 L 91.50 116.05 L 92.02 116.10 L 92.54 116.15 L 93.07 116.20 L 93.59 116.24 L 94.11 116.29 L 94.63 116.33 L 95.15 116.37 L 95.67 116.41 L 96.19 116.45 L 96.71 116.48 L 97.23 116.52 L 97.75 116.55 L 98.27 116.59 L 98.79 116.62 L 99.31 116.65 L 99.83 116.68 L 100.36 116.71 L 100.88 116.74 L 101.40 116.77 L 101.92 116.79 L 102.44 116.82 L 102.96 116.84 L 103.48 116.87 L 104.00 116.89" fill="none" stroke="#00FF66" stroke-width="2.9749999999999996" stroke-linecap="round"></path><path d="M 16.00 125.40 L 16.52 125.38 L 17.04 125.36 L 17.56 125.33 L 18.08 125.31 L 18.60 125.28 L 19.12 125.25 L 19.64 125.23 L 20.17 125.20 L 20.69 125.17 L 21.21 125.14 L 21.73 125.10 L 22.25 125.07 L 22.77 125.04 L 23.29 125.00 L 23.81 124.97 L 24.33 124.93 L 24.85 124.89 L 25.37 124.85 L 25.89 124.81 L 26.41 124.77 L 26.93 124.72 L 27.46 124.67 L 27.98 124.63 L 28.50 124.58 L 29.02 124.53 L 29.54 124.47 L 30.06 124.42 L 30.58 124.36 L 31.10 124.30 L 31.62 124.24 L 32.14 124.17 L 32.66 124.11 L 33.18 124.04 L 33.70 123.97 L 34.22 123.89 L 34.75 123.81 L 35.27 123.73 L 35.79 123.65 L 36.31 123.56 L 36.83 123.47 L 37.35 123.38 L 37.87 123.28 L 38.39 123.18 L 38.91 123.07 L 39.43 122.96 L 39.95 122.85 L 40.47 122.73 L 40.99 122.61 L 41.51 122.48 L 42.04 122.35 L 42.56 122.21 L 43.08 122.07 L 43.60 121.93 L 44.12 121.78 L 44.64 121.62 L 45.16 121.46 L 45.68 121.29 L 46.20 121.12 L 46.72 120.95 L 47.24 120.77 L 47.76 120.58 L 48.28 120.39 L 48.80 120.20 L 49.33 120.01 L 49.85 119.81 L 50.37 119.62 L 50.89 119.42 L 51.41 119.22 L 51.93 119.02 L 52.45 118.83 L 52.97 118.64 L 53.49 118.45 L 54.01 118.27 L 54.53 118.10 L 55.05 117.94 L 55.57 117.79 L 56.09 117.65 L 56.62 117.52 L 57.14 117.41 L 57.66 117.32 L 58.18 117.24 L 58.70 117.18 L 59.22 117.14 L 59.74 117.12 L 60.26 117.12 L 60.78 117.14 L 61.30 117.18 L 61.82 117.24 L 62.34 117.32 L 62.86 117.41 L 63.38 117.52 L 63.91 117.65 L 64.43 117.79 L 64.95 117.94 L 65.47 118.10 L 65.99 118.27 L 66.51 118.45 L 67.03 118.64 L 67.55 118.83 L 68.07 119.02 L 68.59 119.22 L 69.11 119.42 L 69.63 119.62 L 70.15 119.81 L 70.67 120.01 L 71.20 120.20 L 71.72 120.39 L 72.24 120.58 L 72.76 120.77 L 73.28 120.95 L 73.80 121.12 L 74.32 121.29 L 74.84 121.46 L 75.36 121.62 L 75.88 121.78 L 76.40 121.93 L 76.92 122.07 L 77.44 122.21 L 77.96 122.35 L 78.49 122.48 L 79.01 122.61 L 79.53 122.73 L 80.05 122.85 L 80.57 122.96 L 81.09 123.07 L 81.61 123.18 L 82.13 123.28 L 82.65 123.38 L 83.17 123.47 L 83.69 123.56 L 84.21 123.65 L 84.73 123.73 L 85.25 123.81 L 85.78 123.89 L 86.30 123.97 L 86.82 124.04 L 87.34 124.11 L 87.86 124.17 L 88.38 124.24 L 88.90 124.30 L 89.42 124.36 L 89.94 124.42 L 90.46 124.47 L 90.98 124.53 L 91.50 124.58 L 92.02 124.63 L 92.54 124.67 L 93.07 124.72 L 93.59 124.77 L 94.11 124.81 L 94.63 124.85 L 95.15 124.89 L 95.67 124.93 L 96.19 124.97 L 96.71 125.00 L 97.23 125.04 L 97.75 125.07 L 98.27 125.10 L 98.79 125.14 L 99.31 125.17 L 99.83 125.20 L 100.36 125.23 L 100.88 125.25 L 101.40 125.28 L 101.92 125.31 L 102.44 125.33 L 102.96 125.36 L 103.48 125.38 L 104.00 125.40" fill="none" stroke="#2A2A2A" stroke-width="2.9749999999999996" stroke-linecap="round"></path><path d="M 16.00 134.00 L 16.52 133.98 L 17.04 133.95 L 17.56 133.93 L 18.08 133.91 L 18.60 133.88 L 19.12 133.86 L 19.64 133.83 L 20.17 133.81 L 20.69 133.78 L 21.21 133.75 L 21.73 133.72 L 22.25 133.69 L 22.77 133.66 L 23.29 133.63 L 23.81 133.60 L 24.33 133.56 L 24.85 133.53 L 25.37 133.49 L 25.89 133.45 L 26.41 133.41 L 26.93 133.37 L 27.46 133.33 L 27.98 133.28 L 28.50 133.24 L 29.02 133.19 L 29.54 133.14 L 30.06 133.09 L 30.58 133.04 L 31.10 132.99 L 31.62 132.93 L 32.14 132.87 L 32.66 132.81 L 33.18 132.75 L 33.70 132.68 L 34.22 132.61 L 34.75 132.54 L 35.27 132.47 L 35.79 132.39 L 36.31 132.31 L 36.83 132.23 L 37.35 132.14 L 37.87 132.05 L 38.39 131.96 L 38.91 131.86 L 39.43 131.76 L 39.95 131.66 L 40.47 131.55 L 40.99 131.44 L 41.51 131.32 L 42.04 131.20 L 42.56 131.08 L 43.08 130.95 L 43.60 130.81 L 44.12 130.67 L 44.64 130.53 L 45.16 130.38 L 45.68 130.23 L 46.20 130.07 L 46.72 129.91 L 47.24 129.75 L 47.76 129.58 L 48.28 129.41 L 48.80 129.23 L 49.33 129.06 L 49.85 128.88 L 50.37 128.70 L 50.89 128.52 L 51.41 128.33 L 51.93 128.15 L 52.45 127.98 L 52.97 127.80 L 53.49 127.63 L 54.01 127.47 L 54.53 127.31 L 55.05 127.16 L 55.57 127.02 L 56.09 126.89 L 56.62 126.78 L 57.14 126.68 L 57.66 126.59 L 58.18 126.52 L 58.70 126.47 L 59.22 126.43 L 59.74 126.41 L 60.26 126.41 L 60.78 126.43 L 61.30 126.47 L 61.82 126.52 L 62.34 126.59 L 62.86 126.68 L 63.38 126.78 L 63.91 126.89 L 64.43 127.02 L 64.95 127.16 L 65.47 127.31 L 65.99 127.47 L 66.51 127.63 L 67.03 127.80 L 67.55 127.98 L 68.07 128.15 L 68.59 128.33 L 69.11 128.52 L 69.63 128.70 L 70.15 128.88 L 70.67 129.06 L 71.20 129.23 L 71.72 129.41 L 72.24 129.58 L 72.76 129.75 L 73.28 129.91 L 73.80 130.07 L 74.32 130.23 L 74.84 130.38 L 75.36 130.53 L 75.88 130.67 L 76.40 130.81 L 76.92 130.95 L 77.44 131.08 L 77.96 131.20 L 78.49 131.32 L 79.01 131.44 L 79.53 131.55 L 80.05 131.66 L 80.57 131.76 L 81.09 131.86 L 81.61 131.96 L 82.13 132.05 L 82.65 132.14 L 83.17 132.23 L 83.69 132.31 L 84.21 132.39 L 84.73 132.47 L 85.25 132.54 L 85.78 132.61 L 86.30 132.68 L 86.82 132.75 L 87.34 132.81 L 87.86 132.87 L 88.38 132.93 L 88.90 132.99 L 89.42 133.04 L 89.94 133.09 L 90.46 133.14 L 90.98 133.19 L 91.50 133.24 L 92.02 133.28 L 92.54 133.33 L 93.07 133.37 L 93.59 133.41 L 94.11 133.45 L 94.63 133.49 L 95.15 133.53 L 95.67 133.56 L 96.19 133.60 L 96.71 133.63 L 97.23 133.66 L 97.75 133.69 L 98.27 133.72 L 98.79 133.75 L 99.31 133.78 L 99.83 133.81 L 100.36 133.83 L 100.88 133.86 L 101.40 133.88 L 101.92 133.91 L 102.44 133.93 L 102.96 133.95 L 103.48 133.98 L 104.00 134.00" fill="none" stroke="#2A2A2A" stroke-width="2.9749999999999996" stroke-linecap="round"></path></g></svg>